<?xml version='1.0' encoding='utf-8'?>
<svg xmlns="http://www.w3.org/2000/svg" version="1.1" width="600px" height="976px" viewBox="0 0 600 976"> <g id="layer1"> <g style="fill:rgb(0,0,0); fill-opacity:1.0; stroke-linejoin: miter"> <path d="M594.3964,1451.8373L552.2563,1582.7634Q542.43933,1603.387,531.20935,1617.2051Q528.1347,1622.5504,492.74252,1657.1661Q485.94858,1664.52,482.75882,1669.7109Q473.8559,1683.3435,486.86755,1688.8518Q505.38156,1695.407,534.1817,1686.9948Q560.7827,1678.7913,582.09576,1659.7526Q618.3086,1629.8126,675.10266,1521.4537Q643.70386,1485.1544,628.54596,1472.2529Q613.90295,1459.3547,594.4071,1451.8418"/> </g> <g style="fill:rgb(0,0,0); fill-opacity:1.0; stroke-linejoin: miter"> <path d="M304.9882,1627.147L221.76563,1650.3431L183.3782,1655.1206Q152.36444,1649.4089,139.63586,1648.5415Q123.49794,1647.2483,114.03949,1649.4607Q90.78291,1656.2034,97.14413,1674.0178Q104.85449,1693.4686,169.56548,1704.3096Q209.28677,1710.9526,252.54216,1712.9762Q283.5191,1714.4336,308.4547,1709.9752Q321.68378,1687.7317,320.6444,1672.5217Q320.5681,1658.3386,304.99475,1627.1606"/> </g> <g style="fill:rgb(255,205,145); fill-opacity:1.0; stroke-linejoin: miter"> <path d="M219.35974,1558.5453Q208.31404,1605.6036,194.30902,1622.6807Q188.26343,1630.6836,179.39682,1636.8674Q174.5947,1640.2445,168.72168,1643.4708L146.97061,1654.7189Q142.22415,1657.5989,141.91992,1659.6433Q141.14168,1664.0548,155.18828,1668.2477Q169.43256,1672.296,190.21101,1673.5385Q230.15765,1675.5934,269.13263,1665.191Q303.81885,1655.3923,306.8263,1640.7592Q308.1622,1635.2422,306.29352,1628.4357Q306.1254,1625.5975,295.66388,1602.5563Q293.90857,1598.1007,292.3819,1593.1005Q288.23102,1579.5878,286.13513,1562.3195L219.4009,1558.5476"/> </g> <g style="fill:rgb(255,205,145); fill-opacity:1.0; stroke-linejoin: miter"> <path d="M527.55804,1402.271L460.5248,1459.2303Q524.8583,1514.7727,534.77637,1544.6221Q540.47253,1559.1357,538.9652,1575.7656Q538.2618,1584.2527,535.7638,1594.0773L526.57275,1624.5275Q525.42883,1629.8923,527.45056,1631.3748Q533.7989,1634.5665,549.84265,1619.0396Q564.64856,1604.1746,577.5313,1581.4214Q592.6756,1554.6711,604.90515,1521.9386Q616.88806,1489.2354,617.0342,1474.6196Q617.1377,1464.7327,610.96326,1460.1315L606.19916,1457.046Q592.5877,1450.3417,589.72455,1448.4946Q583.62836,1444.9108,576.5652,1440.0045Q561.43475,1429.6611,527.72284,1402.4033"/> </g> <g style="fill:rgb(91,59,48); fill-opacity:1.0; stroke-linejoin: miter"> <path d="M147.95604,-400.93015Q111.146576,-401.16904,37.732033,-353.73886L95.75642,-62.795135Q133.04077,-26.374512,143.27504,3.6879578Q148.3035,16.71466,151.3126,35.069702Q161.40561,132.97556,166.45154,144.3389Q174.23412,175.46817,197.80992,212.0375L279.02283,333.35977Q294.64258,355.70255,304.97528,365.24802Q322.22992,387.81082,381.4181,384.02927Q440.97696,384.2272,437.42953,326.17075Q436.1693,314.54562,430.9032,303.79477L403.8025,267.20047Q397.77118,256.93393,393.08612,236.82516Q388.60184,216.21451,388.5778,201.38571Q388.686,195.82437,389.4532,193.9346Q393.06894,188.00333,393.23486,184.5997Q393.80212,181.5989,393.324,172.73691Q392.15353,155.62521,386.30154,122.086945Q337.40958,-136.94556,310.19864,-242.9216Q298.1751,-289.75214,261.28046,-323.4082Q187.2349,-391.6744,189.62128,-386.70267Q169.44875,-400.93137,147.98051,-400.93015"/> </g> <g style="fill:rgb(0,0,0); fill-opacity:1.0; stroke-linejoin: miter"> <path d="M378.91016,495.1463L230.87491,534.4673L165.3363,510.49976L100.46954,529.79156L89.870575,510.5525L69.73123,562.40845Q65.20036,511.93182,57.774414,546.9439Q52.354317,571.5648,53.104954,588.0737Q54.218185,600.87634,69.76156,562.98016Q71.15495,595.66077,66.37632,608.24243Q63.433064,614.50665,59.071003,614.06464L42.3888,608.92554L56.673805,716.3569Q77.361496,915.6509,82.54579,953.78296Q91.338745,1025.4146,100.88786,1087.867Q123.77089,1241.6865,190.22977,1578.3989L303.86176,1568.1353L282.44937,1255.9656L459.47653,1491.8684L555.3468,1405.2499Q310.70847,1096.752,277.77863,1068.7059Q299.07047,1044.2777,314.6876,997.15533Q323.37827,977.30664,379.00012,783.57605L389.67728,753.2419L411.07645,702.9316Q418.15353,682.5327,420.94406,666.04315Q436.76273,599.6433,379.55646,496.35803"/> </g> <g style="fill:rgb(254,252,75); fill-opacity:1.0; stroke-linejoin: miter"> <path d="M365.3374,379.72913L236.88461,381.86588Q265.4007,422.7198,270.6452,439.94897Q278.0418,461.10498,268.52454,474.09256Q259.5158,486.87772,229.10538,496.79797Q204.11606,505.34503,138.55586,516.37976Q172.1136,538.4899,193.92708,545.79254Q217.70183,554.15375,242.53038,552.7748Q285.79395,552.17896,396.20245,501.8457L365.36545,379.8393"/> </g> <g style="fill:rgb(255,205,145); fill-opacity:1.0; stroke-linejoin: miter"> <path d="M-271.69324,-501.23138Q-283.96835,-500.574,-277.99365,-488.97546Q-275.51184,-484.81015,-270.8127,-479.7061L-242.00807,-449.40546Q-234.61551,-440.599,-233.48715,-434.39923Q-232.58835,-429.7273,-236.69392,-425.01544L-257.52393,-409.83948Q-261.07095,-406.9429,-262.41302,-402.30243Q-264.80145,-392.3612,-247.05786,-371.77582Q-239.70712,-363.08972,-222.87384,-346.08063Q-199.05887,-347.43802,-191.22116,-348.79034Q-188.6709,-348.87167,-186.66113,-346.94196L-89.383255,-238.28946Q-55.229263,-201.8581,-29.183777,-178.90579Q-7.6788635,-159.92996,10.701538,-148.8855Q20.884186,-141.68124,66.9433,-121.411835Q75.54181,-116.92331,82.799255,-110.3407Q92.22281,-101.82004,102.449036,-84.05499L132.65466,-23.28006Q137.06583,-15.75885,141.70804,-15.349182Q148.6174,-14.58606,156.23367,-41.590057L129.94315,-87.20273Q113.71945,-102.69141,103.76196,-119.39032Q93.68289,-135.92596,86.35458,-155.35272Q80.41028,-170.64594,74.24606,-195.85748Q52.34665,-295.8725,37.92874,-353.75787Q21.38498,-324.68222,17.351715,-310.07684Q14.930237,-301.87817,13.851166,-293.4344L11.689117,-267.01462Q-106.31334,-348.2218,-160.84738,-378.71027Q-165.11517,-382.04114,-167.7587,-386.99652L-175.93533,-410.82874Q-178.43448,-416.54675,-183.56746,-422.20557L-212.7113,-450.31915Q-244.87401,-488.95123,-247.50697,-489.79712Q-258.8015,-500.3833,-271.5162,-501.23053"/> </g> <g style="fill:rgb(254,252,75); fill-opacity:1.0; stroke-linejoin: miter"> <path d="M146.6174,-20.490993Q125.926254,-22.186796,99.04782,33.17623Q61.87001,114.234726,55.5203,165.80211Q53.146194,188.45016,61.04686,202.87297Q63.562363,207.56032,68.95025,212.38814Q100.04312,233.16536,103.992424,240.22275Q113.863525,252.2923,116.53465,271.22607Q119.18498,288.46393,114.40648,318.96008Q113.88353,327.83344,93.34637,422.47916Q89.492966,442.69614,88.573975,454.05548Q85.688995,483.83868,98.61518,483.83353Q107.65538,484.04785,125.449005,472.67468L189.43367,426.96677L213.39539,411.44565Q233.56792,399.60468,247.62839,396.65485Q264.61603,392.74414,281.68115,398.52725Q291.56555,400.09354,329.20126,428.28973Q337.052,432.4435,342.8072,430.0062Q362.14642,420.08173,368.06668,376.28836Q370.67978,350.21344,360.5206,334.23138Q356.20612,323.78873,322.63467,300.7489Q318.57312,296.79034,316.63892,292.1542Q315.3224,289.30362,314.47086,284.02402Q313.04532,258.18024,309.53036,246.56491Q304.57578,227.56627,296.2264,214.38298Q289.9996,204.78625,282.75558,201.95622Q280.34656,199.9368,260.06482,198.39511Q256.90182,197.82861,253.89542,196.15059Q248.69388,193.12479,244.60837,184.70743Q240.3369,176.10533,236.03531,158.42322L214.9854,64.42738Q205.67087,46.28657,200.08162,36.25745Q167.68251,-21.75014,147.22134,-20.481897"/> </g> <g style="fill:rgb(255,205,145); fill-opacity:1.0; stroke-linejoin: miter"> <path d="M254.91565,384.9383Q109.67927,449.30618,60.182056,500.82983Q12.093657,551.55994,37.642265,610.7573Q58.02876,649.18066,80.543816,639.9367Q90.4676,634.3638,93.80015,621.33997Q95.22476,615.3713,94.39225,609.33813Q94.85395,608.23566,88.29157,585.86145Q87.22195,580.63416,87.69367,576.36914Q88.698685,565.9725,100.15634,557.3741Q111.61493,548.5513,138.4624,537.3893Q137.43887,536.78046,240.3792,499.74985Q265.05545,490.20258,297.864,475.2031L255.04941,385.21765"/> </g> <g style="fill:rgb(91,59,48); fill-opacity:0.09411765; stroke-linejoin: miter"> <path d="M170.65839,91.43505L211.42839,309.60126L210.37045,404.80777L265.4134,380.2375Q250.97787,351.33527,243.16486,327.0261Q240.09064,317.72202,236.52237,304.8911L218.33897,236.32104Q212.99995,216.77673,207.82428,200.05267Q196.71716,163.53091,170.79062,91.79899"/> </g> <g style="fill:rgb(91,59,48); fill-opacity:0.13333334; stroke-linejoin: miter"> <path d="M368.14276,400.00748Q334.43707,448.4912,305.12625,470.0831Q290.6554,480.78973,271.99115,489.20627Q257.62466,495.96326,223.21104,507.12256Q235.5017,525.9621,245.71074,531.7215Q257.38147,538.7032,272.7816,536.9457Q299.8117,535.3442,384.85504,490.29822L368.15005,400.04663"/> </g> <g style="fill:rgb(136,127,124); fill-opacity:0.3882353; stroke-linejoin: miter"> <path d="M294.45264,714.0446L241.00578,1073.7327Q247.50679,1416.0245,260.25357,1503.3145Q268.92618,1573.398,286.97446,1575.5691Q287.57,1575.7524,288.19623,1575.8322Q287.63156,1572.8082,287.14285,1569.6456L287.13995,1569.6456L302.60938,1568.2484L302.6124,1568.2484Q303.19302,1567.6827,303.786,1567.0752L303.78903,1567.0752L282.44937,1255.9656L282.44937,1255.9656L281.54245,1372.5924Q281.51416,1267.0702,280.7497,1240.2576Q285.6837,1135.722,281.41718,1072.0371L281.41998,1072.0371Q281.41846,1072.0356,281.41693,1072.0342L281.417,1072.0342Q281.17465,1068.4167,280.9574,1064.8964Q280.6976,1060.6862,280.47372,1056.6146Q276.38312,982.74915,282.18518,925.6769Q286.56848,875.5403,305.7744,800.7357L294.4972,714.3856L294.45264,714.0446L294.45264,714.0446 Z"/> </g> <g style="fill:rgb(150,44,7); fill-opacity:0.050980393; stroke-linejoin: miter"> <path d="M38.293938,-354.10153Q38.013252,-353.92053,37.732033,-353.73886L37.7804,-353.49634L37.78002,-353.49634Q21.36682,-324.61646,17.351715,-310.07684Q17.302269,-309.90942,17.253384,-309.7419L17.253557,-309.7419Q16.856031,-307.32004,16.621155,-304.87378Q15.69129,-300.40082,14.501311,-297.79935L14.501456,-297.79935Q14.13113,-295.62512,13.851166,-293.4344L11.79206,-268.27255L11.792178,-268.27255Q12.231148,-267.65308,12.684771,-267.01544L12.684897,-267.01544Q12.547119,-259.23618,11.595036,-251.72562Q10.932068,-245.15347,7.0744686,-229.00218Q6.475984,-225.79558,6.9191318,-224.03165Q7.1313953,-222.56305,9.104122,-220.86081Q18.643597,-215.44984,19.33331,-214.15897Q21.723629,-211.80571,22.840496,-208.47607Q23.78307,-205.8374,23.94056,-200.96066Q22.920403,-174.00948,23.917252,-170.48381Q25.033016,-160.3945,29.500687,-153.62561Q33.500935,-147.5359,41.57625,-141.73712L73.58996,-122.034805Q78.82429,-117.60057,80.04927,-112.719536L80.049995,-112.719536Q81.447876,-111.56642,82.799255,-110.3407Q84.95264,-108.39364,87.14793,-105.96387L87.14706,-105.96387L95.75642,-62.795135Q120.95253,-38.182716,133.79536,-16.47395L133.79402,-16.47395Q126.297516,-11.404303,118.11582,-0.015866987L118.11587,-0.015866987Q142.54112,-2.3248317,160.29382,-15.15329Q177.9991,-28.730713,172.52544,-48.803955Q169.38197,-61.38791,158.32193,-77.944885Q150.02219,-90.95105,123.1209,-123.16196L38.2943,-354.10153 Z"/> </g> </g> </svg>